<svg id="visual" viewBox="0 0 960 200" width="960" height="200" xmlns="http://www.w3.org/2000/svg" xmlns:xlink="http://www.w3.org/1999/xlink" version="1.1"><rect x="0" y="0" width="960" height="200" fill="#010606"></rect><path d="M0 120L8.8 119C17.7 118 35.3 116 53.2 118C71 120 89 126 106.8 128C124.7 130 142.3 128 160 119.7C177.7 111.3 195.3 96.7 213.2 97.7C231 98.7 249 115.3 266.8 114.7C284.7 114 302.3 96 320 95.7C337.7 95.3 355.3 112.7 373.2 122.5C391 132.3 409 134.7 426.8 126.7C444.7 118.7 462.3 100.3 480 96.8C497.7 93.3 515.3 104.7 533.2 103.7C551 102.7 569 89.3 586.8 93.2C604.7 97 622.3 118 640 118.5C657.7 119 675.3 99 693.2 92.2C711 85.3 729 91.7 746.8 101.3C764.7 111 782.3 124 800 122.7C817.7 121.3 835.3 105.7 853.2 99.2C871 92.7 889 95.3 906.8 95.8C924.7 96.3 942.3 94.7 951.2 93.8L960 93L960 0L951.2 0C942.3 0 924.7 0 906.8 0C889 0 871 0 853.2 0C835.3 0 817.7 0 800 0C782.3 0 764.7 0 746.8 0C729 0 711 0 693.2 0C675.3 0 657.7 0 640 0C622.3 0 604.7 0 586.8 0C569 0 551 0 533.2 0C515.3 0 497.7 0 480 0C462.3 0 444.7 0 426.8 0C409 0 391 0 373.2 0C355.3 0 337.7 0 320 0C302.3 0 284.7 0 266.8 0C249 0 231 0 213.2 0C195.3 0 177.7 0 160 0C142.3 0 124.7 0 106.8 0C89 0 71 0 53.2 0C35.3 0 17.7 0 8.8 0L0 0Z" fill="#0e141b" stroke-linecap="round" stroke-linejoin="miter"></path></svg>