<svg id="visual" viewBox="0 0 960 200" width="960" height="200" xmlns="http://www.w3.org/2000/svg" xmlns:xlink="http://www.w3.org/1999/xlink" version="1.1"><rect x="0" y="0" width="960" height="200" fill="#010606"></rect><path d="M0 78L8.8 79C17.7 80 35.3 82 53.2 80C71 78 89 72 106.8 70C124.7 68 142.3 70 160 78.3C177.7 86.7 195.3 101.3 213.2 100.3C231 99.3 249 82.7 266.8 83.3C284.7 84 302.3 102 320 102.3C337.7 102.7 355.3 85.3 373.2 75.5C391 65.7 409 63.3 426.8 71.3C444.7 79.3 462.3 97.7 480 101.2C497.7 104.7 515.3 93.3 533.2 94.3C551 95.3 569 108.7 586.8 104.8C604.7 101 622.3 80 640 79.5C657.7 79 675.3 99 693.2 105.8C711 112.7 729 106.3 746.8 96.7C764.7 87 782.3 74 800 75.3C817.7 76.7 835.3 92.3 853.2 98.8C871 105.3 889 102.7 906.8 102.2C924.7 101.7 942.3 103.3 951.2 104.2L960 105L960 201L951.2 201C942.3 201 924.7 201 906.8 201C889 201 871 201 853.2 201C835.3 201 817.7 201 800 201C782.3 201 764.7 201 746.8 201C729 201 711 201 693.2 201C675.3 201 657.7 201 640 201C622.3 201 604.7 201 586.8 201C569 201 551 201 533.2 201C515.3 201 497.7 201 480 201C462.3 201 444.7 201 426.8 201C409 201 391 201 373.2 201C355.3 201 337.7 201 320 201C302.3 201 284.7 201 266.8 201C249 201 231 201 213.2 201C195.3 201 177.7 201 160 201C142.3 201 124.7 201 106.8 201C89 201 71 201 53.2 201C35.3 201 17.7 201 8.8 201L0 201Z" fill="#0e141b" stroke-linecap="round" stroke-linejoin="miter"></path></svg>